<svg xmlns="http://www.w3.org/2000/svg" viewBox="0 0 512 512">
  <rect width="512" height="512" fill="#006847"/>
  <rect x="170.67" width="170.67" height="512" fill="#fff"/>
  <rect x="341.33" width="170.67" height="512" fill="#CE1126"/>
  <g transform="translate(256,256) scale(0.4)">
    <ellipse cx="0" cy="0" rx="80" ry="60" fill="#6B4423"/>
    <path d="M-60,-20 Q-80,20 -40,40 Q0,60 40,40 Q80,20 60,-20 Q40,-60 0,-50 Q-40,-60 -60,-20" fill="#2E8B57"/>
    <path d="M-20,-30 L-10,-10 L10,-10 L20,-30 L10,-50 L-10,-50 Z" fill="#FFD700"/>
    <circle cx="0" cy="-20" r="15" fill="#CE1126"/>
    <path d="M-30,10 Q-20,30 0,35 Q20,30 30,10 L20,5 Q10,20 0,22 Q-10,20 -20,5 Z" fill="#2E8B57"/>
  </g>
</svg>