<?xml version="1.0" encoding="UTF-8"?>
<svg version="1.1" xmlns="http://www.w3.org/2000/svg" width="3840" height="2161">
<path d="M0 0 C85.8 0 171.6 0 260 0 C260 129.69 260 259.38 260 393 C261.98 393.66 263.96 394.32 266 395 C267.85377875 395.78011513 269.70716633 396.56132544 271.55297852 397.36010742 C337.69658427 425.76748847 411.55106648 411.12145696 477.75 390.3125 C478.45754425 390.09051941 479.1650885 389.86853882 479.89407349 389.63983154 C484.61567415 388.14976015 489.31566701 386.60334946 494 385 C494.7061142 384.75880432 495.41222839 384.51760864 496.13973999 384.269104 C507.47552189 380.4137146 507.47552189 380.4137146 517.3125 373.75 C518.15784302 373.04230469 518.15784302 373.04230469 519.02026367 372.3203125 C520.70007269 370.90154367 522.3505545 369.4538511 524 368 C524.99 367.15953125 525.98 366.3190625 527 365.453125 C533.42710322 359.84726275 538.85536709 353.79091544 544 347 C544.4007373 346.47422363 544.80147461 345.94844727 545.21435547 345.40673828 C581.74790443 297.1185449 589.70359416 231.27489072 582.47827148 172.3918457 C578.41303667 143.28118073 569.70316446 113.47392196 550 91 C549.0409375 89.80890625 549.0409375 89.80890625 548.0625 88.59375 C518.90973116 53.69876912 467.91573802 43.78102161 425.10286427 39.8375864 C404.21327303 38.04966503 383.14598422 38.42341673 362.1973877 38.33044434 C356.06836948 38.30018724 349.93947272 38.25381787 343.81054688 38.20898438 C331.87374906 38.12395019 319.93696139 38.05766956 308 38 C308 25.46 308 12.92 308 0 C326.28390789 -0.04555209 344.56776821 -0.0822209 362.8517189 -0.10362434 C371.34566563 -0.11383663 379.83957402 -0.12769846 388.33349609 -0.15087891 C395.75667628 -0.17112717 403.17982865 -0.18378885 410.60303569 -0.18817699 C414.51549534 -0.19073265 418.42787558 -0.19651455 422.34030914 -0.21146011 C450.89113005 -0.3161565 479.49044714 0.52473991 507.875 3.8125 C508.62141754 3.89614807 509.36783508 3.97979614 510.13687134 4.065979 C525.52640528 5.79691188 540.78807808 8.07571588 556 11 C557.06589355 11.20286621 558.13178711 11.40573242 559.22998047 11.61474609 C595.88344987 18.7995782 632.74757396 31.74738514 663 54 C663.89187012 54.63591064 663.89187012 54.63591064 664.80175781 55.28466797 C681.22805421 67.03422511 696.08178404 81.99362494 707 99 C707.42571289 99.65645508 707.85142578 100.31291016 708.29003906 100.98925781 C726.10180247 128.82759839 735.23154732 162.02335672 736 195 C736.02046387 195.7739209 736.04092773 196.5478418 736.06201172 197.34521484 C736.88336511 232.67698678 731.27577455 266.29183006 721 300 C721.99700928 299.66379639 722.99401855 299.32759277 724.02124023 298.98120117 C815.73955695 268.16123886 918.83026248 243.82770251 1024.046875 288.88671875 C1041.70667295 297.7151652 1057.78947247 308.4496494 1073 321 C1073.55574707 321.4527832 1074.11149414 321.90556641 1074.68408203 322.37207031 C1082.28393551 328.58595224 1089.40643932 335.21094365 1096.375 342.125 C1097.13143799 342.87217285 1097.88787598 343.6193457 1098.66723633 344.38916016 C1099.36228271 345.08831543 1100.0573291 345.7874707 1100.7734375 346.5078125 C1101.39653809 347.13316895 1102.01963867 347.75852539 1102.66162109 348.40283203 C1104 350 1104 350 1104 352 C1098.66797039 350.31620118 1093.5766924 348.39249133 1088.4375 346.1875 C1006.7173441 312.60690921 911.97311913 349.52308934 833.03027344 382.05566406 C823.09058621 386.20961964 813.19284286 390.46213117 803.29785156 394.72119141 C753.27850239 416.2481962 703.23621178 437.58802187 651.61547852 455.01953125 C650.49197998 455.39980469 649.36848145 455.78007813 648.2109375 456.171875 C647.22399902 456.5028418 646.23706055 456.83380859 645.22021484 457.17480469 C643.05820749 457.80297286 643.05820749 457.80297286 642 459 C642.64211426 459.27038086 643.28422852 459.54076172 643.94580078 459.81933594 C674.02345243 472.56401305 701.05243252 487.58479175 725 510 C725.94875 510.88300781 726.8975 511.76601562 727.875 512.67578125 C764.31411491 547.36462392 780.82065128 599.79428096 782.12792969 649.09570312 C782.21896931 653.62620254 782.24657219 658.15616191 782.25 662.6875 C782.25101212 663.90146454 782.25101212 663.90146454 782.25204468 665.13995361 C782.17959989 720.2399664 765.85619944 772.27360239 727.36474609 812.56787109 C726.05051533 813.94699053 724.75339339 815.34235213 723.45703125 816.73828125 C703.85165513 837.23346264 678.29505693 851.75594311 652.98583984 864.02929688 C651.07091449 864.96533612 649.17000351 865.92565459 647.26953125 866.890625 C594.51246761 893.21865548 533.06089354 903.9667299 474.8125 908.8125 C473.77487015 908.89886215 473.77487015 908.89886215 472.71627808 908.98696899 C450.83443017 910.76083519 428.96816477 911.14837623 407.02294469 911.10139394 C403.52501844 911.0950172 400.02709071 911.09454556 396.52915955 911.09336853 C389.94608897 911.09029645 383.36303559 911.08214047 376.77997249 911.07201904 C369.26809715 911.06072753 361.75622086 911.05531507 354.24433911 911.05032361 C338.82954784 911.03995292 323.41478017 911.02166074 308 911 C308 898.79 308 886.58 308 874 C321.5 876.4375 321.5 876.4375 325.70898438 877.20092773 C327.38444336 877.50172241 327.38444336 877.50172241 329.09375 877.80859375 C330.22490234 878.01282959 331.35605469 878.21706543 332.52148438 878.42749023 C339.3705688 879.55474339 345.95686435 880.16420452 352.88671875 880.203125 C353.72938797 880.21009399 354.57205719 880.21706299 355.44026184 880.22424316 C358.18939195 880.24169407 360.93831656 880.24797819 363.6875 880.25 C365.10869141 880.25151062 365.10869141 880.25151062 366.55859375 880.25305176 C385.81967367 880.23931693 404.86028029 879.11897571 424 877 C425.83038818 876.79914795 425.83038818 876.79914795 427.69775391 876.59423828 C473.82663834 871.25149931 528.52685422 857.38613637 564 826 C564.98613281 825.13503906 565.97226562 824.27007813 566.98828125 823.37890625 C606.25549776 788.46013568 627.29662192 738.58156068 633 687 C633.14139404 685.86087158 633.14139404 685.86087158 633.28564453 684.69873047 C635.97060657 660.34194607 636.02089392 632.99473025 631 609 C630.80132324 608.03336426 630.60264648 607.06672852 630.39794922 606.07080078 C623.5397147 573.80370638 609.71474531 546.864418 587 523 C586.11054687 522.03126953 586.11054687 522.03126953 585.203125 521.04296875 C571.70867044 506.78026554 542.74384473 484.77710269 522.71513367 483.89993286 C521.36860466 483.9168367 521.36860466 483.9168367 519.99487305 483.93408203 C518.96968567 483.94368958 517.94449829 483.95329712 516.88824463 483.9631958 C515.77399109 483.97791931 514.65973755 483.99264282 513.51171875 484.0078125 C511.1236251 484.02821006 508.73552213 484.04753716 506.34741211 484.06591797 C505.09588348 484.07637146 503.84435486 484.08682495 502.55490112 484.09759521 C481.20583423 484.2488768 460.13127192 484.39038571 439 481 C437.13577393 480.70198486 437.13577393 480.70198486 435.23388672 480.39794922 C369.55840263 469.49152165 313.36817385 440.28321066 261 400 C260.67 568.63 260.34 737.26 260 911 C179.48 911 98.96 911 16 911 C16 899.78 16 888.56 16 877 C37.3324406 874.32614374 58.66557501 871.65797322 80 869 C81.07467529 868.86601807 82.14935059 868.73203613 83.2565918 868.59399414 C88.22729841 867.97456953 93.19828635 867.3576189 98.17019653 866.7479248 C100.13771441 866.50611861 102.10487339 866.26139782 104.07202148 866.01660156 C105.21743408 865.87706055 106.36284668 865.73751953 107.54296875 865.59375 C108.49196045 865.47708984 109.44095215 865.36042969 110.41870117 865.24023438 C112.93619009 865.00593861 115.47163196 865 118 865 C118 594.73 118 324.46 118 46 C113.05 45.67 108.1 45.34 103 45 C99.49158481 44.68229086 95.99089926 44.35116291 92.48803711 43.984375 C91.54938812 43.88829956 90.61073914 43.79222412 89.64364624 43.6932373 C86.60459951 43.38147154 83.56596717 43.06586262 80.52734375 42.75 C78.38841088 42.52944051 76.2494589 42.30906626 74.11048889 42.08886719 C69.65852317 41.62996243 65.20675411 41.1692084 60.75512695 40.70703125 C55.05617441 40.11545297 49.35680609 39.5279962 43.65729427 38.9418335 C39.25365972 38.48858803 34.85022012 38.03347171 30.44684029 37.57775879 C28.34458223 37.36036352 26.2422712 37.14347994 24.13990593 36.92712402 C21.20887858 36.6251486 18.27811581 36.32072341 15.34741211 36.015625 C14.05458565 35.8831134 14.05458565 35.8831134 12.73564148 35.7479248 C11.93289795 35.66385376 11.13015442 35.57978271 10.30308533 35.49316406 C9.61278701 35.42164124 8.92248869 35.35011841 8.21127224 35.27642822 C5.46270206 34.93283309 2.73227478 34.45537913 0 34 C0 22.78 0 11.56 0 0 Z M254 391 C255.65 392.65 257.3 394.3 259 396 C259 395.01 259 394.02 259 393 C256.525 392.01 256.525 392.01 254 391 Z " fill="#0049BD" transform="translate(207,601)"/>
<path d="M0 0 C21.3250479 -0.04655271 42.65008332 -0.08211849 63.97517204 -0.10362434 C73.87962462 -0.11388097 83.7840448 -0.1278321 93.68847656 -0.15087891 C102.33404983 -0.17098664 110.97959961 -0.18375706 119.62519562 -0.18817699 C124.19125986 -0.19075536 128.75725697 -0.19669418 133.32329941 -0.21146011 C229.31893048 -0.50931292 229.31893048 -0.50931292 259.30859375 29.14453125 C276.35724706 47.23243483 279.72399145 68.03808451 279.13623047 91.99755859 C278.04830116 115.97489658 267.99317083 136.0182642 250.5625 152.25 C238.76782165 162.34235364 224.42089721 167.4117202 209.37890625 170.45703125 C207.05777392 170.76488193 207.05777392 170.76488193 206 172 C206.59723877 172.1451001 207.19447754 172.2902002 207.80981445 172.43969727 C231.87370849 178.34580836 255.28312926 184.98748007 274 202 C274.65484375 202.57363281 275.3096875 203.14726563 275.984375 203.73828125 C291.54731481 218.16498873 297.16045193 239.98232234 297.97607422 260.47729492 C298.52859426 285.85654496 291.52022959 307.66817337 274 326.4375 C255.11669556 344.74664991 228.2018761 353.85829769 202.9375 358.8125 C201.94693604 359.00739014 200.95637207 359.20228027 199.93579102 359.40307617 C178.37346091 363.34069605 156.88277028 363.27446066 135.05767918 363.20278788 C130.54275185 363.19013317 126.02782075 363.18909857 121.51287842 363.18673706 C112.99597923 363.18056499 104.47913248 363.16421317 95.96225619 363.14403808 C86.2521901 363.12154459 76.54212127 363.11065212 66.83203554 363.10064721 C46.88799383 363.07984224 26.9440021 363.04433967 7 363 C7 358.38 7 353.76 7 349 C11.08915218 348.44706433 15.17842298 347.89520976 19.26806641 347.34594727 C20.65486698 347.15938 22.04158814 346.9722213 23.42822266 346.78442383 C25.43891352 346.51221839 27.44989506 346.2422506 29.4609375 345.97265625 C31.26763916 345.72914429 31.26763916 345.72914429 33.11083984 345.48071289 C37.73163129 344.90956798 42.36715129 344.46328487 47 344 C47 236.75 47 129.5 47 19 C41.72 18.67 36.44 18.34 31 18 C25.86919046 17.52937739 20.74830731 17.03789401 15.625 16.5 C14.33078125 16.36980469 13.0365625 16.23960937 11.703125 16.10546875 C10.47335937 15.97785156 9.24359375 15.85023438 7.9765625 15.71875 C6.32261475 15.54762695 6.32261475 15.54762695 4.63525391 15.37304688 C2 15 2 15 0 14 C0 9.38 0 4.76 0 0 Z M105 16 C105 65.83 105 115.66 105 167 C154.57289866 167.71951556 154.57289866 167.71951556 197 145 C197.69609375 144.35804688 198.3921875 143.71609375 199.109375 143.0546875 C213.51087038 128.37409337 218.18394463 106.90922241 218.24023438 87.07177734 C218.24984399 85.03309787 218.2808733 82.99547076 218.3125 80.95703125 C218.45231584 63.54051962 214.80468598 47.23075543 203 34 C176.63340474 10.50976059 137.02884361 16 105 16 Z M105 184 C105 237.79 105 291.58 105 347 C130.25442231 353.88756972 156.01441342 351.15720005 181 344 C181.77778809 343.77828125 182.55557617 343.5565625 183.35693359 343.328125 C203.1693076 337.48922446 217.52598853 325.7490706 227.8515625 307.77734375 C238.76236463 287.18610654 242.25207661 259.68206875 236.4375 236.9375 C232.76692811 225.09156344 226.78826221 215.67721918 218 207 C217.20722656 206.17435547 217.20722656 206.17435547 216.3984375 205.33203125 C195.07458484 184.93767986 158.05628648 182.78003569 130.4375 182.875 C129.30892578 182.87113281 128.18035156 182.86726563 127.01757812 182.86328125 C125.89673828 182.86457031 124.77589844 182.86585938 123.62109375 182.8671875 C122.6355249 182.86831543 121.64995605 182.86944336 120.63452148 182.87060547 C115.4127428 183.05650879 110.20703814 183.56608015 105 184 Z " fill="#0049BD" transform="translate(1453,914)"/>
<path d="M0 0 C26.25082586 23.21082412 35.92074179 53.91163363 38.49609375 88.20703125 C38.81713722 94.28824824 38.83762242 100.36888303 38.80859375 106.45703125 C38.80585953 107.66043655 38.80585953 107.66043655 38.80307007 108.88815308 C38.75374048 121.84705254 38.12481862 134.480342 35.49609375 147.20703125 C35.31916992 148.06522461 35.14224609 148.92341797 34.95996094 149.80761719 C29.32515117 176.13259201 18.00791827 198.57618452 -0.50390625 218.20703125 C-1.51517578 219.33238281 -1.51517578 219.33238281 -2.546875 220.48046875 C-26.44046135 246.03270931 -63.43987328 254.14281769 -97.03515625 255.33203125 C-121.02692068 255.74214688 -143.04036271 250.93880302 -164.50390625 240.20703125 C-164.50390625 282.11703125 -164.50390625 324.02703125 -164.50390625 367.20703125 C-156.91390625 367.53703125 -149.32390625 367.86703125 -141.50390625 368.20703125 C-127.67850942 369.03242808 -127.67850942 369.03242808 -126.50390625 370.20703125 C-126.50390625 374.82703125 -126.50390625 379.44703125 -126.50390625 384.20703125 C-168.08390625 384.20703125 -209.66390625 384.20703125 -252.50390625 384.20703125 C-252.50390625 370.20703125 -252.50390625 370.20703125 -251.50390625 369.20703125 C-249.74800651 368.9783603 -247.98394268 368.81176469 -246.21875 368.671875 C-245.13013672 368.58486328 -244.04152344 368.49785156 -242.91992188 368.40820312 C-241.77201172 368.32119141 -240.62410156 368.23417969 -239.44140625 368.14453125 C-237.76014648 368.00821289 -237.76014648 368.00821289 -236.04492188 367.86914062 C-230.14562908 367.40842075 -224.44547068 367.20703125 -218.50390625 367.20703125 C-218.50390625 246.42703125 -218.50390625 125.64703125 -218.50390625 1.20703125 C-223.12390625 1.20703125 -227.74390625 1.20703125 -232.50390625 1.20703125 C-235.36733714 1.09320843 -238.23000246 0.95256109 -241.08984375 0.76953125 C-241.80250397 0.72513916 -242.51516418 0.68074707 -243.24942017 0.63500977 C-245.45953065 0.4964269 -247.66919876 0.35188229 -249.87890625 0.20703125 C-251.4049225 0.11027533 -252.93096414 0.01391908 -254.45703125 -0.08203125 C-258.13969907 -0.31369582 -261.82170652 -0.55347608 -265.50390625 -0.79296875 C-265.50390625 -5.41296875 -265.50390625 -10.03296875 -265.50390625 -14.79296875 C-254.95873584 -15.45069367 -244.41324606 -16.10302052 -233.86733246 -16.74872589 C-228.96884522 -17.04881502 -224.07048047 -17.35066383 -219.17236328 -17.65673828 C-214.43285048 -17.95283344 -209.6930589 -18.24403974 -204.95304871 -18.53205872 C-203.15754265 -18.64198315 -201.36213799 -18.75357867 -199.56684875 -18.86698914 C-188.526101 -19.56311685 -177.56849399 -19.94455163 -166.50390625 -19.79296875 C-166.62264647 -14.2243961 -166.74692568 -8.65598409 -166.8762207 -3.08764648 C-166.91939104 -1.19542759 -166.96107784 0.69682578 -167.0012207 2.58911133 C-167.05935944 5.31732549 -167.12292561 8.04536897 -167.1875 10.7734375 C-167.20421249 11.61225967 -167.22092499 12.45108185 -167.23814392 13.31532288 C-167.35560476 18.02843529 -167.73618418 22.554253 -168.50390625 27.20703125 C-165.49827954 26.89380629 -164.60628643 26.32714326 -162.609375 23.984375 C-161.97644531 23.04722656 -161.34351562 22.11007812 -160.69140625 21.14453125 C-144.45659992 -1.91661047 -120.66294975 -14.61910968 -93.50390625 -20.79296875 C-92.54097656 -21.01984375 -91.57804687 -21.24671875 -90.5859375 -21.48046875 C-59.03843769 -27.61115697 -24.82593503 -20.77434243 0 0 Z M-147.50390625 28.20703125 C-159.63768384 43.07840907 -164.93667175 57.6092779 -165.01904297 76.64331055 C-165.03623583 78.18021897 -165.05455756 79.7171151 -165.07391357 81.2539978 C-165.12148455 85.40040578 -165.14930324 89.54669707 -165.17033529 93.69331717 C-165.18362577 96.28749947 -165.19988073 98.88164853 -165.21686172 101.4758091 C-165.26850967 109.60387852 -165.30669208 117.73186417 -165.32728755 125.86007184 C-165.35136496 135.22439008 -165.42175009 144.58688368 -165.53128994 153.95058316 C-165.61323459 161.2060579 -165.65292818 168.46101144 -165.6608907 175.71694118 C-165.66663383 180.04436137 -165.6903622 184.3698897 -165.75863266 188.69681358 C-165.821718 192.76321455 -165.83229245 196.82643258 -165.80297089 200.89318466 C-165.80121127 202.38197045 -165.81817044 203.87091804 -165.85554123 205.35923576 C-165.96192625 209.85152866 -165.89239023 213.914839 -164.50390625 218.20703125 C-161.22086425 221.49809868 -157.72675841 223.34418276 -153.50390625 225.20703125 C-152.23696101 225.89362049 -150.97220655 226.58428844 -149.7109375 227.28125 C-127.97722994 237.61038835 -99.91767853 242.09324856 -76.6484375 234.4609375 C-57.15615635 226.68823905 -43.60988987 213.98860296 -35.28515625 194.7109375 C-23.75798488 166.43639797 -22.33279509 134.3504137 -21.50390625 104.20703125 C-21.48054199 103.43939453 -21.45717773 102.67175781 -21.43310547 101.88085938 C-20.54934556 69.53079092 -24.05348937 34.09008986 -47.125 9.49609375 C-59.60284336 -2.51050101 -73.57054873 -5.32057856 -90.28125 -5.06640625 C-114.0013944 -4.19570497 -132.4019259 11.24010224 -147.50390625 28.20703125 Z " fill="#0049BD" transform="translate(3131.50390625,1028.79296875)"/>
<path d="M0 0 C0.0820083 24.79312073 -0.08574626 49.56816757 -0.57285571 74.3565073 C-0.63895248 77.74316928 -0.70265845 81.12987483 -0.76642853 84.5165813 C-0.91654828 92.4870322 -1.07036719 100.45740518 -1.22680664 108.42773438 C-1.3876086 116.62346887 -1.54209736 124.81930623 -1.69367355 133.01521611 C-1.82530369 140.12179003 -1.96056383 147.22828834 -2.09881264 154.33473659 C-2.1808144 158.55121969 -2.2614845 162.76771704 -2.33868217 166.98429108 C-2.41080949 170.91478247 -2.48746657 174.84515935 -2.56768799 178.77549362 C-2.59632752 180.215861 -2.62335479 181.65626146 -2.64866829 183.09669113 C-2.68338384 185.05764554 -2.72444423 187.01848461 -2.76585388 188.97930908 C-2.78705512 190.07628742 -2.80825636 191.17326576 -2.83010006 192.30348587 C-3 195 -3 195 -4 198 C-0.02333387 196.71892635 1.66282383 195.60746499 3.75 192 C7.26051894 186.41711365 11.4172542 181.72846109 16 177 C17.20076172 175.76056641 17.20076172 175.76056641 18.42578125 174.49609375 C33.65764357 159.72650342 53.29319893 151.53158938 74 148 C75.03511719 147.81566406 76.07023437 147.63132812 77.13671875 147.44140625 C103.8173647 144.39296035 133.80845512 147.27386933 155.6875 164.125 C172.1020244 178.29257942 178.74379485 198.22606936 180.75 219.25 C181.01126689 224.74660094 181.04336156 230.23307855 181.0390625 235.734375 C181.03844818 236.69158447 181.03783386 237.64879395 181.03720093 238.63500977 C181.01346762 250.75822457 180.82758811 262.87866176 180.625 275 C180.59431931 276.88974045 180.59431931 276.88974045 180.5630188 278.81765747 C180.15950552 303.26036469 179.49469246 327.6939297 178.72880554 352.12779808 C178.23985907 367.75751601 177.89174339 383.36052793 178 399 C196.315 400.485 196.315 400.485 215 402 C215 406.62 215 411.24 215 416 C174.74 416 134.48 416 93 416 C93 411.38 93 406.76 93 402 C96.4996132 401.66210631 99.99959977 401.32955422 103.5 401 C104.97339844 400.85691406 104.97339844 400.85691406 106.4765625 400.7109375 C107.44335938 400.62070313 108.41015625 400.53046875 109.40625 400.4375 C110.72592773 400.31181641 110.72592773 400.31181641 112.07226562 400.18359375 C115.7242444 399.95458374 119.34097373 399.97259156 123 400 C122.99476318 399.2608989 122.98952637 398.52179779 122.98413086 397.76029968 C122.88951728 382.06739517 122.99647111 366.39437077 123.4375 350.70703125 C123.45957834 349.91784931 123.48165668 349.12866737 123.50440407 348.31557083 C123.59660079 345.03481645 123.68966865 341.7540881 123.78373432 338.47338676 C124.65318758 308.06085789 125.23820366 277.65289467 125.30505371 247.22753525 C125.31244031 244.76986128 125.3256633 242.31228366 125.34057617 239.85464478 C125.36308477 235.99058407 125.36954721 232.12681605 125.36351585 228.26269722 C125.3633632 226.86153911 125.36795531 225.46036976 125.37804604 224.05924797 C125.48895812 207.03754694 122.68638002 189.7638719 110.45703125 177.12890625 C100.43781072 168.44770564 86.85451436 166.73829879 74 167 C57.22470005 168.38966982 43.28257518 175.60035754 31 187 C30.23429687 187.69738281 29.46859375 188.39476562 28.6796875 189.11328125 C20.07299117 197.31513298 12.97223481 206.48829202 7.5625 217.0625 C7.08574829 217.98011108 7.08574829 217.98011108 6.59936523 218.91625977 C1.25008078 229.92695417 0.55373186 241.19895152 0.56762695 253.23339844 C0.55859103 254.83121489 0.54825939 256.42902445 0.53674316 258.02682495 C0.50936166 262.32764884 0.49991452 266.62834054 0.49388909 270.92924023 C0.48445592 275.43760011 0.45824884 279.94586314 0.43388367 284.4541626 C0.39035021 292.97482531 0.36172269 301.49546909 0.33856028 310.01620889 C0.31143778 319.7237347 0.26753083 329.43116244 0.22227156 339.13861799 C0.1296138 359.0923729 0.06006207 379.04611851 0 399 C17.82 400.485 17.82 400.485 36 402 C36 406.62 36 411.24 36 416 C-5.58 416 -47.16 416 -90 416 C-90 411.38 -90 406.76 -90 402 C-78.45 401.01 -66.9 400.02 -55 399 C-54.67 276.24 -54.34 153.48 -54 27 C-59.28 27 -64.56 27 -70 27 C-73.79773948 26.88424529 -77.58181483 26.75075437 -81.375 26.5625 C-82.26832031 26.52318359 -83.16164063 26.48386719 -84.08203125 26.44335938 C-90.07938518 26.16046532 -96.03208747 25.65462298 -102 25 C-102.02685938 22.85423363 -102.04633088 20.70837355 -102.0625 18.5625 C-102.07410156 17.36753906 -102.08570312 16.17257812 -102.09765625 14.94140625 C-102 12 -102 12 -101 11 C-97.9791971 10.57472869 -94.96958564 10.20810082 -91.93798828 9.87670898 C-90.98681122 9.76927368 -90.03563416 9.66183838 -89.05563354 9.55114746 C-85.89432152 9.1952033 -82.73234513 8.84557387 -79.5703125 8.49609375 C-77.38170695 8.25123463 -75.19313925 8.00603695 -73.00460815 7.76051331 C-68.40977916 7.24594733 -63.8146397 6.73428168 -59.21923828 6.22485352 C-53.32149867 5.57099446 -47.42436107 4.91188911 -41.52742195 4.25085354 C-37.0049513 3.74415256 -32.4822781 3.23928046 -27.95952988 2.73506355 C-25.7849227 2.49258848 -23.61035442 2.24976441 -21.43582535 2.00658989 C-18.39767173 1.66730733 -15.35927931 1.33025516 -12.32080078 0.99389648 C-11.41678528 0.89260941 -10.51276978 0.79132233 -9.58135986 0.68696594 C-8.75409393 0.59585541 -7.926828 0.50474487 -7.07449341 0.41087341 C-6.35587191 0.33105445 -5.6372504 0.25123549 -4.89685249 0.16899776 C-3 0 -3 0 0 0 Z " fill="#0049BD" transform="translate(2390,861)"/>
<path d="M0 0 C0.7303244 -0.00067474 1.4606488 -0.00134949 2.21310425 -0.00204468 C28.86030741 0.03694039 56.95751232 3.77224222 77.16918945 22.83496094 C85.63919207 31.36447857 90.57279324 41.95171204 94.25 53.25 C94.54648438 54.13300781 94.84296875 55.01601562 95.1484375 55.92578125 C101.47906185 77.58153087 99.52466563 101.96977362 99.45278788 124.30421901 C99.44010802 128.92322985 99.43909666 133.54224458 99.43673706 138.16127014 C99.43057215 146.86931517 99.41423046 155.57730873 99.39403808 164.28533131 C99.37152175 174.21553546 99.36064648 184.14574235 99.35064721 194.07596576 C99.32985854 214.467339 99.29478193 234.85866623 99.25 255.25 C100.15129639 255.27505615 101.05259277 255.3001123 101.98120117 255.32592773 C105.39013609 255.42221546 108.79896492 255.52136027 112.20776367 255.62231445 C113.67094782 255.66509012 115.13416381 255.70679271 116.59741211 255.74731445 C125.84494478 256.00427848 135.02806169 256.46332569 144.25 257.25 C144.58 261.87 144.91 266.49 145.25 271.25 C134.58386086 272.0361561 123.91746776 272.81876365 113.250741 273.59690857 C108.29715893 273.95838637 103.34367071 274.32106143 98.39038086 274.68652344 C93.60546095 275.0395177 88.82031591 275.38930061 84.03500175 275.73690796 C82.21419426 275.86972978 80.39346914 276.0036862 78.57283211 276.13882446 C76.01239022 276.32867573 73.45167856 276.51440004 70.89086914 276.69921875 C69.77523842 276.7833754 69.77523842 276.7833754 68.6370697 276.86923218 C63.49698743 277.23433643 58.40318369 277.29479665 53.25 277.25 C51.58333333 262.25 49.91666667 247.25 48.25 232.25 C47.84910156 232.92804688 47.44820312 233.60609375 47.03515625 234.3046875 C34.23291283 255.26436947 16.44834997 269.00934703 -7.36328125 275.1875 C-32.99035965 281.01310908 -59.45224334 279.42208474 -82.609375 266.33203125 C-95.75444383 257.61770079 -106.03121318 245.49577796 -110 230 C-113.38953615 211.6834681 -112.12072195 191.74281467 -101.4375 175.9375 C-100.2315021 174.35704879 -99.00244949 172.7939 -97.75 171.25 C-97.16605469 170.49203125 -96.58210938 169.7340625 -95.98046875 168.953125 C-72.46226839 140.23616456 -27.16853032 133.81099666 7.25 130.25 C8.45011719 130.11722656 9.65023437 129.98445313 10.88671875 129.84765625 C19.14779388 129.09099567 27.4144684 129.213443 35.703125 129.23046875 C37.65726318 129.23258362 37.65726318 129.23258362 39.65087891 129.23474121 C42.8505906 129.23840724 46.05029293 129.24353727 49.25 129.25 C49.18200769 121.65896485 49.09184309 114.06840542 48.98754883 106.4777832 C48.95466429 103.90524991 48.92652414 101.33265078 48.90356445 98.76000977 C49.08333468 59.94560622 49.08333468 59.94560622 31.6328125 26.48046875 C23.02305141 18.3444505 11.37709866 15.3236317 -0.19921875 15.21875 C-15.41601349 15.88835593 -26.95014152 20.96494268 -37.5 31.9375 C-50.74987681 47.43470574 -51.75861906 65.4987324 -50.515625 84.91015625 C-50.30030909 87.36412436 -50.05754673 89.80610186 -49.75 92.25 C-50.99735567 92.9009259 -52.24801832 93.54551669 -53.5 94.1875 C-54.19609375 94.54714844 -54.8921875 94.90679688 -55.609375 95.27734375 C-63.96285269 99.07299329 -72.22366414 97.30435988 -80.59375 94.5078125 C-88.54243926 91.34014178 -94.16299229 87.16063307 -97.75 79.25 C-101.71859116 67.70038214 -98.42137128 52.81310763 -93.625 42.125 C-90.54709668 36.37466566 -86.32961774 31.84475697 -81.75 27.25 C-81.08355469 26.56035156 -80.41710938 25.87070313 -79.73046875 25.16015625 C-58.80488618 4.95476582 -27.83401893 0.0231274 0 0 Z M-42.125 170.8125 C-54.70576891 184.09912063 -57.38432653 200.22995954 -57.0625 217.8359375 C-56.56414922 229.82542674 -52.48246418 238.64492391 -43.9375 247 C-33.15331667 254.6123647 -20.83410513 256.63570696 -7.87890625 254.85546875 C10.71446883 250.94505744 29.37582881 238.73109675 39.9375 223 C47.54792844 210.50934166 49.58602232 197.45217172 49.4453125 183.01953125 C49.4424826 181.90309738 49.43965271 180.78666351 49.43673706 179.63639832 C49.42564707 176.11165103 49.4005638 172.58716896 49.375 169.0625 C49.36495574 166.65560266 49.35583243 164.24870129 49.34765625 161.84179688 C49.32574451 155.97777589 49.29238031 150.1139069 49.25 144.25 C17.38298309 144.05524581 -17.69031721 148.64994473 -42.125 170.8125 Z " fill="#0049BD" transform="translate(2731.75,1005.75)"/>
<path d="M0 0 C1.0374939 0.00273422 1.0374939 0.00273422 2.09594727 0.00552368 C28.55421269 0.12218873 57.15765224 3.93199124 76.75 23.484375 C96.07635865 44.30622568 98.55142061 71.44007698 98.48852539 98.53393555 C98.48824283 100.24982196 98.4884026 101.9657085 98.4889679 103.68159485 C98.48925318 108.30890581 98.48340002 112.93619051 98.47639394 117.5634954 C98.47011554 122.41080321 98.46955306 127.25811172 98.46836853 132.10542297 C98.46526839 141.27071474 98.45707285 150.43599449 98.44701904 159.60128099 C98.43581688 170.0414809 98.43033713 180.48168141 98.42532361 190.92188585 C98.41488907 212.38543059 98.39731527 233.84896454 98.375 255.3125 C99.27629639 255.33755615 100.17759277 255.3626123 101.10620117 255.38842773 C104.51513609 255.48471546 107.92396492 255.58386027 111.33276367 255.68481445 C112.79594782 255.72759012 114.25916381 255.76929271 115.72241211 255.80981445 C124.96670295 256.0666884 134.15889325 256.49846218 143.375 257.3125 C144.08041386 260.66382604 144.48866666 263.69683401 144.4375 267.125 C144.42396484 268.31029297 144.42396484 268.31029297 144.41015625 269.51953125 C144.39275391 270.40705078 144.39275391 270.40705078 144.375 271.3125 C133.70886086 272.0986561 123.04246776 272.88126365 112.375741 273.65940857 C107.42215893 274.02088637 102.46867071 274.38356143 97.51538086 274.74902344 C92.73046095 275.1020177 87.94531591 275.45180061 83.16000175 275.79940796 C81.33919426 275.93222978 79.51846914 276.0661862 77.69783211 276.20132446 C75.13739022 276.39117573 72.57667856 276.57690004 70.01586914 276.76171875 C68.90023842 276.8458754 68.90023842 276.8458754 67.7620697 276.93173218 C62.62198743 277.29683643 57.52818369 277.35729665 52.375 277.3125 C52.25906494 276.19278809 52.14312988 275.07307617 52.02368164 273.91943359 C51.59130899 269.74833919 51.15648981 265.57750278 50.72094727 261.40673828 C50.53310936 259.60472398 50.34592685 257.80264123 50.15942383 256.00048828 C49.89057702 253.40378658 49.61934112 250.80734361 49.34765625 248.2109375 C49.26532242 247.4107016 49.18298859 246.6104657 49.09815979 245.78598022 C48.65746424 241.59791634 48.1204245 237.46019272 47.375 233.3125 C46.818125 234.14652344 46.26125 234.98054688 45.6875 235.83984375 C32.15334038 255.9033007 15.12473042 269.88000361 -8.76953125 275.5703125 C-34.27212307 280.47962602 -62.24140242 280.02667887 -84.625 265.3125 C-97.88165363 255.95952464 -107.60463812 244.17649716 -111.15234375 228.03125 C-113.89711279 206.43604236 -110.98457395 187.32652542 -97.5625 169.75 C-88.23059986 158.83167684 -76.65517209 151.96474926 -63.625 146.3125 C-62.92197754 146.00715332 -62.21895508 145.70180664 -61.49462891 145.38720703 C-39.98772857 136.29205591 -16.7283689 132.61412556 6.375 130.3125 C7.56996094 130.18101562 8.76492187 130.04953125 9.99609375 129.9140625 C18.26186916 129.15043281 26.53430868 129.27593241 34.828125 129.29296875 C36.78226318 129.29508362 36.78226318 129.29508362 38.77587891 129.29724121 C41.9755906 129.30090724 45.17529293 129.30603727 48.375 129.3125 C48.31301225 121.94776997 48.23537771 114.58336555 48.13928509 107.218997 C48.09509497 103.79714625 48.0557366 100.37540069 48.02856445 96.95336914 C48.26214068 58.98474065 48.26214068 58.98474065 30.65234375 26.50390625 C20.96434964 17.65450844 9.17960935 15.47861385 -3.625 15.3125 C-15.98490095 15.87644985 -27.78238182 21.53443082 -36.6640625 30.0859375 C-50.00025904 45.22863078 -52.53741739 62.73954549 -51.39453125 82.24609375 C-51.16120547 85.60395603 -50.90660525 88.9583803 -50.625 92.3125 C-51.87235567 92.9634259 -53.12301832 93.60801669 -54.375 94.25 C-55.07109375 94.60964844 -55.7671875 94.96929688 -56.484375 95.33984375 C-63.89486239 98.70701777 -72.0633852 97.70367289 -79.625 95.3125 C-87.70039522 92.25326286 -93.6627991 87.98299886 -97.71875 80.21875 C-102.12852445 68.9493264 -99.57818805 56.363264 -95.625 45.3125 C-87.79112766 27.5668051 -71.03209271 15.64684037 -53.41796875 8.62109375 C-49.06589093 7.06569999 -44.64570611 5.77588318 -40.1875 4.5625 C-39.46143555 4.36358154 -38.73537109 4.16466309 -37.98730469 3.9597168 C-25.49614482 0.77684692 -12.846589 -0.05418182 0 0 Z M-43.03125 171.45703125 C-55.94961578 185.67890683 -58.32222079 201.48352274 -57.76123047 219.96484375 C-57.18623177 229.87378186 -53.14057724 239.32164636 -45.875 246.125 C-35.78741765 254.28574077 -23.3043248 256.28658385 -10.625 255.3125 C3.81436053 253.48019494 17.77768423 244.9764742 28.375 235.3125 C29.06722656 234.72339844 29.75945313 234.13429688 30.47265625 233.52734375 C41.56110583 223.46441552 47.58608793 209.10652047 48.57653809 194.29956055 C48.86286333 186.1369895 48.74081333 177.97733973 48.625 169.8125 C48.60489434 167.33204575 48.58665081 164.85157568 48.5703125 162.37109375 C48.52666337 156.35121172 48.4600769 150.33193176 48.375 144.3125 C17.25866132 144.21250759 -19.95094589 148.30922926 -43.03125 171.45703125 Z " fill="#0049BD" transform="translate(3522.625,1005.6875)"/>
<path d="M0 0 C18.86188103 16.37858604 28.02732603 37.9021986 30.0625 62.5625 C30.21081298 65.56435478 30.24743146 68.55730564 30.25 71.5625 C30.26224609 72.28566406 30.27449219 73.00882813 30.28710938 73.75390625 C30.30858492 82.21527147 29.07279969 89.97495261 28.0625 98.5625 C-29.6875 98.5625 -87.4375 98.5625 -146.9375 98.5625 C-147.39844244 164.77029334 -147.39844244 164.77029334 -118.3828125 223.30859375 C-104.52855227 236.07841508 -86.88773241 239.23050442 -68.65625 238.80859375 C-41.7922501 237.6929607 -19.2888858 226.5484316 -0.4765625 207.4375 C4.1806411 202.16411254 8.12200207 196.38102248 12.0625 190.5625 C17.6506646 191.92465665 20.49851076 193.13515115 23.953125 197.6484375 C25.84347011 200.90994844 25.75007068 202.87462089 25.0625 206.5625 C19.22477117 223.01933556 3.53531093 234.42338387 -11.65161133 241.79638672 C-48.12317703 258.65331911 -93.11109457 261.29044771 -130.90625 247.58203125 C-142.46180634 243.11878569 -152.63520009 236.7224122 -161.9375 228.5625 C-162.69289063 227.93859375 -163.44828125 227.3146875 -164.2265625 226.671875 C-190.21971996 204.69827797 -203.14975807 170.27712214 -206.41943359 137.15014648 C-209.76722408 96.91586547 -203.5171562 54.77661865 -176.98046875 22.953125 C-176.30628906 22.16421875 -175.63210938 21.3753125 -174.9375 20.5625 C-174.27363281 19.75296875 -173.60976562 18.9434375 -172.92578125 18.109375 C-153.85784897 -4.30690029 -125.32060061 -18.0389679 -96.27441406 -21.27197266 C-63.28436944 -23.60871004 -26.92112368 -21.16811643 0 0 Z M-121.9375 12.5625 C-135.8833881 30.05867242 -145.9375 55.82991973 -145.9375 78.5625 C-105.6775 78.5625 -65.4175 78.5625 -23.9375 78.5625 C-18.190457 61.321371 -22.90497493 38.19303075 -30.625 22.125 C-36.70024382 10.36471789 -44.8836916 1.68114229 -57.56640625 -2.6875 C-80.18673523 -9.39460885 -105.49348153 -5.31780529 -121.9375 12.5625 Z " fill="#0049BD" transform="translate(1990.9375,1027.4375)"/>
<path d="M0 0 C10.45384183 10.07397839 17.9891618 24.28336733 18.36328125 39.015625 C18.39370448 40.84366425 18.41826938 42.67180875 18.4375 44.5 C18.46650391 45.40363281 18.49550781 46.30726562 18.52539062 47.23828125 C18.59669568 54.8624376 16.87674955 60.65068899 12.22265625 66.73828125 C4.18264456 73.94497119 -5.43449367 77.04794745 -16.2265625 76.65234375 C-21.50585219 75.85032776 -26.13907471 73.61796265 -30.875 71.25 C-30.77324463 70.39776855 -30.77324463 70.39776855 -30.66943359 69.52832031 C-28.40866157 49.08768243 -27.23354025 29.37505876 -40.19140625 12.29296875 C-48.27877113 2.47929861 -58.12685947 -4.07889544 -70.875 -5.75 C-88.98054848 -6.85115616 -106.16966577 -3.58313182 -120.25 8.5625 C-121.82125441 10.09524327 -123.36435687 11.65748636 -124.875 13.25 C-125.57109375 13.97574219 -126.2671875 14.70148438 -126.984375 15.44921875 C-154.25495191 46.57784239 -153.6378608 99.80591421 -151.35913086 138.35009766 C-149.32832084 168.3823685 -144.43149755 201.63435127 -121.6875 223.4375 C-106.8654981 236.07017394 -87.63034685 238.35745858 -68.875 237.25 C-45.04734593 234.75504536 -24.36973264 222.13096352 -8.875 204.25 C-5.01316891 199.39242702 -1.42485509 194.33789675 2.125 189.25 C7.16118158 190.81368155 10.46175345 192.33117811 14.125 196.25 C15.88059194 202.00444025 15.12273993 206.09875444 12.6640625 211.54296875 C1.24126639 231.63433348 -22.40281707 242.87589806 -43.875 249.25 C-79.28761754 258.45153409 -119.34235174 257.47483798 -151.53833008 238.65771484 C-157.03284587 235.29888912 -162.03698768 231.50083476 -166.875 227.25 C-167.68066406 226.58742188 -168.48632812 225.92484375 -169.31640625 225.2421875 C-190.53327526 207.24603257 -203.16064835 181.05540341 -208.875 154.25 C-209.03871094 153.52280762 -209.20242187 152.79561523 -209.37109375 152.04638672 C-214.40017686 128.90117469 -214.18096143 101.31213158 -208.875 78.25 C-208.70871094 77.50234375 -208.54242187 76.7546875 -208.37109375 75.984375 C-200.87228403 43.32289266 -181.28561479 14.76988458 -152.94921875 -3.296875 C-110.36043487 -29.48329107 -39.86121209 -34.01347035 0 0 Z " fill="#0049BD" transform="translate(2264.875,1028.75)"/>
<path d="M0 0 C6.15898236 5.25766787 9.95177186 10.68258062 10.84765625 18.7578125 C11.19641495 29.40253468 8.98734103 37.4690627 1.79296875 45.41015625 C-0.94524203 47.59209303 -2.99548495 48.51378062 -6.4375 49.1875 C-9.4375 48.32421875 -9.4375 48.32421875 -12.4375 46.875 C-24.95628727 40.92531595 -43.05933289 41.32895996 -56.296875 45.01953125 C-72.42973741 51.01919028 -90.4053867 60.74791324 -97.9375 77 C-100.08784488 82.30617509 -100.56517125 87.31125998 -100.59571838 93.0148468 C-100.60065636 93.68882151 -100.60559434 94.36279622 -100.61068195 95.05719441 C-100.62599945 97.30806537 -100.6344019 99.55890793 -100.64282227 101.80981445 C-100.65240531 103.42629749 -100.66241565 105.04277803 -100.67282104 106.65925598 C-100.69982992 111.0431017 -100.72086122 115.42695814 -100.74082303 119.81084085 C-100.76270738 124.3939485 -100.79008408 128.97702327 -100.81687927 133.56010437 C-100.86677305 142.23683183 -100.91172418 150.91357759 -100.95490164 159.59034079 C-101.00430235 169.46937151 -101.05920997 179.34836922 -101.11458123 189.227368 C-101.22835038 209.54738123 -101.33520045 229.867426 -101.4375 250.1875 C-100.34397217 250.24284912 -99.25044434 250.29819824 -98.1237793 250.35522461 C-94.01787047 250.56363147 -89.91211479 250.77493616 -85.80639648 250.98706055 C-84.03853255 251.07800502 -82.27062945 251.16819181 -80.50268555 251.25756836 C-71.12701455 251.732051 -61.77988482 252.23873082 -52.4375 253.1875 C-52.4375 257.8075 -52.4375 262.4275 -52.4375 267.1875 C-98.3075 267.1875 -144.1775 267.1875 -191.4375 267.1875 C-191.4375 262.5675 -191.4375 257.9475 -191.4375 253.1875 C-187.12528999 252.84999649 -182.81279529 252.51736755 -178.5 252.1875 C-176.68145508 252.04441406 -176.68145508 252.04441406 -174.82617188 251.8984375 C-173.63701172 251.80820313 -172.44785156 251.71796875 -171.22265625 251.625 C-169.59662476 251.49931641 -169.59662476 251.49931641 -167.93774414 251.37109375 C-163.77626726 251.15281722 -159.60469744 251.1875 -155.4375 251.1875 C-155.4375 175.2875 -155.4375 99.3875 -155.4375 21.1875 C-169.6275 20.5275 -183.8175 19.8675 -198.4375 19.1875 C-198.4375 14.5675 -198.4375 9.9475 -198.4375 5.1875 C-175.7152903 3.51453428 -152.98877553 1.93173779 -130.25 0.5 C-129.20626221 0.43356293 -128.16252441 0.36712585 -127.0871582 0.29867554 C-124.10643021 0.10942437 -121.12552408 -0.07669128 -118.14453125 -0.26171875 C-117.26392532 -0.31782318 -116.3833194 -0.37392761 -115.47602844 -0.43173218 C-110.78546972 -0.71829502 -106.13679783 -0.86841098 -101.4375 -0.8125 C-101.27243049 11.15847853 -101.7965513 23.04888766 -102.4375 35 C-102.58198612 37.72075123 -102.7252613 40.44154663 -102.86547852 43.16252136 C-102.95192679 44.83787833 -103.0407564 46.51311505 -103.13256836 48.18818665 C-103.42680159 53.85865161 -103.48454038 59.50994026 -103.4375 65.1875 C-103.08558594 64.24390625 -102.73367187 63.3003125 -102.37109375 62.328125 C-92.50148432 36.42633558 -73.99946658 13.87122343 -48.6875 1.75 C-33.0366703 -4.99013834 -15.78611614 -8.32358851 0 0 Z " fill="#0049BD" transform="translate(3389.4375,1009.8125)"/>
</svg>
